<svg width="330" height="288" viewBox="0 0 330 288" fill="none" xmlns="http://www.w3.org/2000/svg">
<path fill-rule="evenodd" clip-rule="evenodd" d="M18.3334 266.67C19.571 261.357 23.8347 254.345 27.1699 250.626C29.0222 248.56 39.2856 239.396 39.2856 237.861C39.2856 225.567 28.8095 204.365 28.8095 160.599C28.8095 121.732 39.0262 87.1265 55.5496 64.2433C73.7126 39.0905 105.665 21.789 137.5 21.789C172.47 21.789 192.095 22.9587 222.069 44.6007C245.073 61.2098 260.796 85.2783 267.496 113.102C272.852 135.341 271.8 157.719 264.71 179.118C261.969 187.392 260.766 188.254 257.097 195.077C253.567 201.642 252.239 204.842 248.036 210.897C235.958 228.298 214.868 245.237 193.016 252.782C181.944 256.605 166.9 261.108 153.215 261.432C117.453 262.281 43.5686 272.549 18.3334 266.67ZM0 268.791V266.539C0.852656 251.611 18.3334 234.105 18.3334 231.313C18.3334 223.529 14.7242 209.58 13.4651 202.133C10.0608 181.998 10.4761 175.019 10.4761 155.36C10.4761 130.992 14.7736 112.488 20.3821 93.2424C46.5572 3.41812 150.165 -18.9354 218.635 20.5351C255.321 41.6833 280.022 75.1912 287.751 116.419C298.229 172.318 271.37 226.743 226.023 256.979C188.774 281.814 168.674 278.822 127.017 281.068C104.572 282.279 34.5784 294.192 11.0667 283.103C3.40134 279.489 0.353015 274.393 0 268.791Z" fill="#2BC2B4"/>
<path fill-rule="evenodd" clip-rule="evenodd" d="M273.691 46.6701L275 58.4558C310.725 58.4558 330 44.4888 330 4.76556C330 -4.48113 300.568 1.2562 291.06 9.04035C280.467 17.7132 273.691 33.309 273.691 46.6701Z" fill="#FA7C5C"/>
<path fill-rule="evenodd" clip-rule="evenodd" d="M226.548 108.218C226.548 118.336 248.234 143.792 213.925 201.737C209.461 209.278 211.374 213.59 220 215.599C237.113 204.14 255.744 148.763 245.075 117.19C242.152 108.541 241.84 102.98 231.786 102.98C228.72 102.98 226.548 105.153 226.548 108.218Z" fill="#FA7C5C"/>
<path fill-rule="evenodd" clip-rule="evenodd" d="M189.881 123.932C189.881 127.688 200.645 142.054 187.637 168.831C187.621 168.865 172.347 189.408 188.571 189.408C197.43 189.408 208.214 158.721 208.214 147.503C208.214 138.949 209.74 117.384 196.428 117.384C193.375 117.384 189.881 120.878 189.881 123.932Z" fill="#FA7C5C"/>
</svg>
