<svg width="120" height="100" viewBox="0 0 29 25" fill="none" xmlns="http://www.w3.org/2000/svg">
<path fill-rule="evenodd" clip-rule="evenodd" d="M1.59261 23.1655C1.70012 22.7039 2.0705 22.0948 2.36023 21.7717C2.52114 21.5923 3.41272 20.7962 3.41272 20.6628C3.41272 19.5949 2.50266 17.7531 2.50266 13.9511C2.50266 10.5748 3.39017 7.56863 4.82555 5.58078C6.40336 3.39578 9.17905 1.89281 11.9445 1.89281C14.9824 1.89281 16.6872 1.99442 19.291 3.87444C21.2893 5.31726 22.6552 7.40807 23.2372 9.82512C23.7025 11.757 23.6111 13.701 22.9952 15.5599C22.757 16.2786 22.6526 16.3535 22.3339 16.9462C22.0272 17.5165 21.9118 17.7945 21.5467 18.3205C20.4975 19.8321 18.6655 21.3036 16.7672 21.959C15.8053 22.2911 14.4985 22.6823 13.3097 22.7105C10.203 22.7841 3.78477 23.6762 1.59261 23.1655ZM0 23.3497V23.1541C0.0740696 21.8573 1.59261 20.3366 1.59261 20.094C1.59261 19.4178 1.27908 18.2061 1.1697 17.5592C0.87397 15.8101 0.910052 15.2038 0.910052 13.4961C0.910052 11.3792 1.28337 9.77175 1.77058 8.09992C4.04439 0.29694 13.0447 -1.64489 18.9926 1.78388C22.1796 3.62101 24.3253 6.53182 24.9967 10.1133C25.907 14.9692 23.5737 19.6971 19.6344 22.3236C16.3987 24.481 14.6526 24.2211 11.0339 24.4162C9.08409 24.5214 3.0038 25.5563 0.961357 24.593C0.295472 24.279 0.0306662 23.8364 0 23.3497Z" fill="#2BC2B4"/>
<path fill-rule="evenodd" clip-rule="evenodd" d="M23.7754 4.0542L23.8891 5.07801C26.9925 5.07801 28.6669 3.86471 28.6669 0.413981C28.6669 -0.389273 26.1102 0.109126 25.2843 0.785329C24.3641 1.53873 23.7754 2.89353 23.7754 4.0542Z" fill="#FA7C5C"/>
<path fill-rule="evenodd" clip-rule="evenodd" d="M19.68 9.40083C19.68 10.2797 21.5639 12.4911 18.5835 17.5248C18.1956 18.1798 18.3619 18.5544 19.1112 18.729C20.5978 17.7335 22.2163 12.9229 21.2895 10.1803C21.0356 9.42888 21.0084 8.9458 20.135 8.9458C19.8687 8.9458 19.68 9.13454 19.68 9.40083Z" fill="#FA7C5C"/>
<path fill-rule="evenodd" clip-rule="evenodd" d="M16.4948 10.7661C16.4948 11.0923 17.4299 12.3403 16.2999 14.6664C16.2984 14.6694 14.9716 16.4539 16.381 16.4539C17.1506 16.4539 18.0874 13.7881 18.0874 12.8137C18.0874 12.0706 18.22 10.1973 17.0636 10.1973C16.7983 10.1973 16.4948 10.5008 16.4948 10.7661Z" fill="#FA7C5C"/>
</svg>
