<?xml version="1.0" encoding="UTF-8"?>
<!DOCTYPE svg PUBLIC "-//W3C//DTD SVG 1.1//EN" "http://www.w3.org/Graphics/SVG/1.1/DTD/svg11.dtd">
<!-- Creator: CorelDRAW -->
<svg xmlns="http://www.w3.org/2000/svg" xml:space="preserve" width="313mm" height="440mm" version="1.1" style="shape-rendering:geometricPrecision; text-rendering:geometricPrecision; image-rendering:optimizeQuality; fill-rule:evenodd; clip-rule:evenodd"
viewBox="0 0 31300 44000"
 xmlns:xlink="http://www.w3.org/1999/xlink"
 xmlns:xodm="http://www.corel.com/coreldraw/odm/2003">
 <defs>
  <style type="text/css">
   <![CDATA[
    .fil0 {fill:#2BC2B4}
    .fil1 {fill:#FA7C5C}
   ]]>
  </style>
 </defs>
 <g id="Слой_x0020_1">
  <metadata id="CorelCorpID_0Corel-Layer"/>
  <g id="_2138983218032">
   <path class="fil0" d="M11694.02 25312.38c33.34,-143.12 148.2,-332.02 238.05,-432.23 49.9,-55.64 326.39,-302.51 326.39,-343.88 0,-331.18 -282.22,-902.34 -282.22,-2081.39 0,-1047.03 275.23,-1979.29 720.36,-2595.75 489.3,-677.6 1350.08,-1143.69 2207.69,-1143.69 942.08,0 1470.76,31.51 2278.24,614.53 619.71,447.44 1043.28,1095.83 1223.78,1845.39 144.28,599.11 115.95,1201.96 -75.06,1778.43 -73.85,222.88 -106.25,246.1 -205.08,429.91 -95.1,176.86 -130.88,263.06 -244.11,426.18 -325.38,468.77 -893.51,925.11 -1482.19,1128.36 -298.29,102.98 -703.55,224.3 -1072.23,233.04 -963.41,22.85 -2953.8,299.48 -3633.62,141.1zm-493.89 57.13l0 -60.65c22.97,-402.16 493.89,-873.76 493.89,-948.98 0,-209.69 -97.23,-585.48 -131.15,-786.08 -91.71,-542.43 -80.52,-730.44 -80.52,-1260.03 0,-656.46 115.77,-1154.96 266.86,-1673.42 705.14,-2419.81 3496.27,-3022 5340.8,-1958.69 988.31,569.72 1653.74,1472.4 1861.94,2583.06 282.29,1505.88 -441.29,2972.06 -1662.91,3786.58 -1003.45,669.05 -1544.95,588.44 -2667.14,648.96 -604.67,32.61 -2490.25,353.54 -3123.64,54.82 -206.5,-97.38 -288.62,-234.64 -298.13,-385.57z"/>
   <path class="fil1" d="M18573.18 19385.71l35.27 317.5c962.4,0 1481.67,-376.26 1481.67,-1446.38 0,-249.1 -792.88,-94.54 -1049.01,115.16 -285.37,233.64 -467.93,653.78 -467.93,1013.72z"/>
   <path class="fil1" d="M17303.18 21043.77c0,272.56 584.22,958.35 -340.05,2519.35 -120.27,203.13 -68.71,319.29 163.66,373.43 461,-308.71 962.93,-1800.53 675.51,-2651.07 -78.74,-233.01 -87.16,-382.82 -358.01,-382.82 -82.58,0 -141.11,58.53 -141.11,141.11z"/>
   <path class="fil1" d="M16315.4 21467.1c0,101.18 289.99,488.2 -60.44,1209.56 -0.45,0.91 -411.91,554.33 25.16,554.33 238.64,0 529.17,-826.7 529.17,-1128.89 0,-230.44 41.11,-811.39 -317.5,-811.39 -82.26,0 -176.39,94.13 -176.39,176.39z"/>
  </g>
 </g>
</svg>
